<?xml version="1.0" encoding="UTF-8"?>
<svg id="_Слой_2" data-name="Слой 2" xmlns="http://www.w3.org/2000/svg" viewBox="0 0 17.62 17.61">
  <g id="_Слой_1-2" data-name="Слой 1">
    <path d="m8.26,0c.37,0,.73,0,1.1,0,.05.01.1.02.15.03.34.05.68.08,1.02.14,4.68.92,7.77,5.44,6.96,10.13-.71,4.08-4.14,7.12-8.27,7.3-2.15.09-4.1-.51-5.8-1.84-1.78-1.4-2.88-3.22-3.28-5.45-.06-.31-.09-.63-.13-.95,0-.37,0-.73,0-1.1.03-.21.05-.42.08-.63.25-1.79.97-3.37,2.19-4.71C3.62,1.42,5.31.48,7.31.13c.31-.05.63-.09.95-.13Zm-.86,9.6c-.06-.07-.11-.12-.15-.17-.53-.54-1.05-1.09-1.59-1.62-.75-.74-2.01-.5-2.46.44-.3.62-.18,1.28.34,1.81.9.93,1.8,1.85,2.69,2.78.72.74,1.67.74,2.39-.01.8-.84,1.6-1.68,2.39-2.52.93-.98,1.86-1.95,2.79-2.93.38-.4.54-.88.43-1.42-.12-.6-.5-1.01-1.08-1.18-.6-.17-1.14-.02-1.57.43-.65.67-1.29,1.35-1.93,2.03-.74.78-1.48,1.55-2.24,2.35Z"/>
  </g>
</svg>