<?xml version="1.0" encoding="UTF-8"?>
<svg id="_Слой_2" data-name="Слой 2" xmlns="http://www.w3.org/2000/svg" viewBox="0 0 31.15 53.28">
  <g id="_Слой_1-2" data-name="Слой 1">
    <path d="m14.07,28.51c1.77-.96,3.77-1.44,6-1.44,2.67,0,5.03.73,7.07,2.2l1.42,1.19h2.59s0-2.59,0-2.59h0s0,0,0,0l-.04-27.86h-3.43l-12.04,20.57L3.43,0H0v25.81h4.01V8.07l9.79,16.32c-.67.25-1.32.54-1.95.88-2.38,1.28-4.25,3.07-5.6,5.35-1.35,2.29-2.03,4.85-2.03,7.69s.68,5.4,2.03,7.67c1.35,2.27,3.21,4.06,5.58,5.35,2.37,1.3,5.03,1.94,7.99,1.94,2.09,0,4.1-.32,6.02-.96,1.92-.64,3.61-1.56,5.06-2.76v-11.41h-4.01v9.53c-1.95,1.25-4.24,1.88-6.86,1.88-2.2,0-4.19-.49-5.96-1.46-1.77-.98-3.16-2.32-4.16-4.03-1-1.71-1.5-3.63-1.5-5.75s.5-4.08,1.5-5.79c1-1.71,2.39-3.05,4.16-4.01ZM27.09,7.94l.03,16.93c-.28-.13-.56-.26-.85-.38-1.91-.77-4.03-1.15-6.38-1.15-.7,0-1.38.04-2.04.11l9.23-15.51Z"/>
  </g>
</svg>