<?xml version="1.0" encoding="UTF-8"?>
<svg id="_Слой_2" data-name="Слой 2" xmlns="http://www.w3.org/2000/svg" viewBox="0 0 702.22 435.46">
  <defs>
    <style>
      .cls-1 {
        fill: #0092ff;
      }
    </style>
  </defs>
  <g id="_Слой_1-2" data-name="Слой 1">
    <g id="_Лого_онлика" data-name="Лого онлика">
      <g>
        <path class="cls-1" d="m411.74,118.23c9.31-2.84,17.8-7.75,27.2-10.44,25.06-7.16,49.94-5.26,74.87.63,27.08,6.4,52.8,16.75,78.55,26.94,35.07,13.87,69.83,28.54,104.83,42.58,5.59,2.24,6.6,3.69,2.6,8.9-41.02,53.41-96.29,77.54-162.38,79.78-22.86.77-45.47-1.68-68.83-5.72,2.8,4.26,6.69,5.75,9.87,8,3.42,2.42,7.16,4.4,10.83,6.45,3.67,2.05,7.36,4.12,11.17,5.89,22.63,10.45,46.1,18.4,70.62,23.01,4.65.87,6.19,1.41,2.74,6.19-43.52,60.21-113.4,86.2-185.21,67.62-12.66-3.28-20.84-1.85-31.49,6.94-53.43,44.11-115.05,58.85-183.1,46-13.04-2.46-25.85-6.24-37.88-12.15-.06-3.1,1.56-5.58,3.42-7.71,23.39-26.8,45.73-54.48,68.55-81.76,14.59-17.45,29.23-34.88,43.57-52.54,1.56-1.92,2.65-4.06,3.73-6.24,7.58-8.16,15.34-16.18,21.24-25.74,9.31-7.34,16.1-17.04,23.58-26.02,8.93-10.72,18.61-20.7,27.98-30.99,21.69-23.8,45.28-45.46,71.75-63.88,3.59-2.5,7.16-5.24,11.77-5.73Z"/>
        <path class="cls-1" d="m411.74,118.23c-9.87,6.89-20.37,12.91-29.44,20.93-11.66,10.3-23.55,20.35-34.9,30.98-12.75,11.94-24.14,25.27-35.99,38.07-7.29,7.87-14.46,16.2-20.71,25.2-3.18,4.58-7.3,9.28-12.91,11.73-1.31-4.59.97-8.7,1.99-12.88,8.55-34.95-14.2-66.84-43.39-75.25-33.64-9.7-68.1,8.7-78.65,41.48-8.58,26.65,2.97,57.87,26.66,72.63,21.44,13.36,43.11,12.6,65.14,1.69,2.29-1.14,4.42-3.2,7.38-2.12-2.05,7.38-8.03,12.04-12.55,17.63-9.88,12.21-20.65,23.7-30.37,36.03-12.55,15.91-25.64,31.36-38.66,46.87-9.31,11.1-18.44,22.36-27.43,33.72-3.78,4.77-8.8,8.48-11.76,13.92-36.79-14.02-66.85-37.19-90.51-68.35C6.24,298.6-8.02,240.01,4.3,176.19,25.41,66.75,123.96-7.5,232.49.6c78.46,5.86,137.24,44.28,176.77,112.23.99,1.7,1.66,3.59,2.47,5.4Z"/>
      </g>
    </g>
  </g>
</svg>